<?xml version="1.0" encoding="iso-8859-1"?>
<!-- Generator: Adobe Illustrator 18.0.0, SVG Export Plug-In . SVG Version: 6.00 Build 0)  -->
<!DOCTYPE svg PUBLIC "-//W3C//DTD SVG 1.1//EN" "http://www.w3.org/Graphics/SVG/1.1/DTD/svg11.dtd">
<svg xmlns="http://www.w3.org/2000/svg" xmlns:xlink="http://www.w3.org/1999/xlink" version="1.1" id="Capa_1" x="0px" y="0px" viewBox="0 0 467.435 467.435" style="enable-background:new 0 0 467.435 467.435;" xml:space="preserve" width="512px" height="512px">
<g>
	<path d="M421.18,35.684H140.967c-25.539,0-46.254,20.715-46.254,46.256v43.537h40.141V90.314c0-9.727,7.865-17.596,17.594-17.596   h257.252c9.729,0,17.598,7.869,17.598,17.596v165.449c0,9.727-7.869,17.596-17.598,17.596H289.834v57.719   c0,0-0.17,76.701-0.199,77.361c-0.324,8.115-2.676,15.643-6.5,22.283h83.293c9.727,0,17.594-7.869,17.594-17.596v-22.5   c0-9.728-7.867-17.596-17.594-17.596h-42.936V341.82h97.688c25.541,0,46.256-20.715,46.256-46.256V81.939   C467.435,56.398,446.721,35.684,421.18,35.684z M398.455,319.277c-7.98,0-14.434-6.471-14.434-14.445   c0-7.965,6.453-14.416,14.434-14.416c7.955,0,14.426,6.451,14.426,14.416C412.881,312.807,406.41,319.277,398.455,319.277z" fill="#FFFFFF"/>
	<path d="M248.078,220.861l-2.119-3.84l-14.43,14.443v130.994H149.91v28.108c2.352-1.645,5.041-2.828,8.131-2.828   c7.963,0,14.432,6.455,14.432,14.416c0,7.975-6.469,14.445-14.432,14.445c-3.09,0-5.779-1.182-8.131-2.826v4.117   c0,4.9-1.014,9.527-2.643,13.861h93.682c13.951,0,25.281-11.328,25.281-25.279v-175.16h-0.492   C258.393,231.313,251.613,227.303,248.078,220.861z" fill="#FFFFFF"/>
	<path d="M84.555,188.742h100.688l16.215-16.225l-3.953-2.184c-7.113-3.98-11.139-11.773-10.25-19.732   c0.066-0.537,0.293-1,0.4-1.521H75.133c-13.953,0-25.281,11.326-25.281,25.281v35.389h34.703V188.742z" fill="#FFFFFF"/>
	<path d="M110.537,230.928H15.766C7.053,230.928,0,237.982,0,246.695v168.768c0,8.713,7.053,15.766,15.766,15.766h94.771   c8.715,0,15.771-7.053,15.771-15.766V246.695C126.309,237.982,119.252,230.928,110.537,230.928z M63.162,422.238   c-6.699,0-12.141-5.438-12.141-12.154c0-6.685,5.441-12.109,12.141-12.109c6.686,0,12.127,5.424,12.127,12.109   C75.289,416.801,69.848,422.238,63.162,422.238z M100.689,373.017H25.633V262.293h75.057V373.017z" fill="#FFFFFF"/>
	<path d="M293.217,125.246c-0.834-0.861-1.969-1.307-3.139-1.307c-0.432,0-0.846,0.045-1.26,0.168l-82.723,24.342   c-1.734,0.492-2.996,1.982-3.18,3.781c-0.199,1.768,0.707,3.504,2.275,4.365l22.189,12.248l-58.855,58.889   c-6.152,6.145-6.152,16.121,0,22.266c3.07,3.061,7.098,4.596,11.123,4.596c4.027,0,8.053-1.535,11.127-4.611l58.857-58.889   l12.231,22.178c0.783,1.412,2.273,2.305,3.875,2.305c0.168,0,0.336,0,0.506-0.029c1.781-0.186,3.289-1.443,3.779-3.152   l24.314-82.756C294.813,128.059,294.352,126.367,293.217,125.246z" fill="#FFFFFF"/>
</g>
<g>
</g>
<g>
</g>
<g>
</g>
<g>
</g>
<g>
</g>
<g>
</g>
<g>
</g>
<g>
</g>
<g>
</g>
<g>
</g>
<g>
</g>
<g>
</g>
<g>
</g>
<g>
</g>
<g>
</g>
</svg>
