<?xml version="1.0" encoding="utf-8"?>
<!-- Generator: Adobe Illustrator 22.0.1, SVG Export Plug-In . SVG Version: 6.00 Build 0)  -->
<svg version="1.1" id="Camada_1" xmlns="http://www.w3.org/2000/svg" xmlns:xlink="http://www.w3.org/1999/xlink" x="0px" y="0px"
	 viewBox="0 0 570.9 186.1" style="enable-background:new 0 0 570.9 186.1;" xml:space="preserve">
<style type="text/css">
	.st0{display:none;}
	.st1{display:inline;fill:#FFFFFF;}
	.st2{fill:#FFFFFF;}
</style>
<g class="st0">
	<path class="st1" d="M121.4,36.9l-23.6,14c-4.4-7.7-8.6-12.7-12.6-15c-4.2-2.7-9.5-4-16.1-4c-8.1,0-14.8,2.3-20.1,6.9
		c-5.3,4.5-8,10.2-8,17c0,9.4,7,17,21,22.8l19.3,7.9c15.7,6.3,27.1,14.1,34.4,23.2c7.3,9.1,10.9,20.3,10.9,33.6
		c0,17.8-5.9,32.4-17.8,44c-11.9,11.7-26.7,17.5-44.4,17.5c-16.8,0-30.6-5-41.5-14.9c-10.8-9.9-17.5-23.9-20.1-41.9l29.5-6.5
		c1.3,11.3,3.7,19.2,7,23.5c6,8.3,14.8,12.5,26.3,12.5c9.1,0,16.6-3,22.6-9.1c6-6.1,9-13.8,9-23.1c0-3.8-0.5-7.2-1.6-10.3
		c-1-3.1-2.7-6-4.9-8.6c-2.2-2.6-5.1-5.1-8.6-7.4c-3.5-2.3-7.7-4.5-12.5-6.6l-18.6-7.8C24.4,93.4,11.2,77,11.2,55.5
		c0-14.5,5.5-26.6,16.6-36.4C38.9,9.3,52.7,4.4,69.2,4.4C91.5,4.4,108.9,15.2,121.4,36.9z"/>
	<path class="st1" d="M164.1,79.4v121.8H136V79.4H164.1z"/>
	<path class="st1" d="M229.9,174.7h72.4v26.5H174.1l78.9-95.5h-62.2V79.4h117.8L229.9,174.7z"/>
	<path class="st1" d="M347,79.4v121.8h-28.1V79.4H347z"/>
	<path class="st1" d="M395.3,105.7v95.5H367v-95.5h-10V79.4h10v-47c0-15.3,2.7-26.2,8-32.5c7.3-8.8,18-13.3,32-13.3
		c5,0,11.3,1.5,18.9,4.4v28.8l-2.9-1.5c-6.1-3.1-11.1-4.6-15-4.6c-5,0-8.4,1.8-10.1,5.4c-1.8,3.5-2.6,10.3-2.6,20.3v40.1h30.6v26.3
		H395.3z"/>
	<path class="st1" d="M490.7,178.6l-54.8-99.2h32.6l37.3,70l34.8-70h31.8l-97,188.1h-32.1L490.7,178.6z"/>
	<path class="st1" d="M134.9,58.8c0-4.1,1.5-7.6,4.4-10.5c3-3,6.5-4.4,10.6-4.4c4.2,0,7.8,1.5,10.7,4.4c3,2.9,4.4,6.4,4.4,10.6
		c0,4.2-1.5,7.8-4.4,10.7c-2.9,3-6.4,4.4-10.6,4.4c-4.2,0-7.8-1.5-10.7-4.4C136.4,66.7,134.9,63.1,134.9,58.8z"/>
	<path class="st1" d="M317.8,58.8c0-4.1,1.5-7.6,4.4-10.5c3-3,6.5-4.4,10.6-4.4c4.2,0,7.8,1.5,10.7,4.4c3,2.9,4.4,6.4,4.4,10.6
		c0,4.2-1.5,7.8-4.4,10.7c-2.9,3-6.4,4.4-10.6,4.4c-4.2,0-7.8-1.5-10.7-4.4C319.3,66.7,317.8,63.1,317.8,58.8z"/>
</g>
<g>
	<path class="st2" d="M8.3,141.1V96.3h33c0,3.7,0.8,6.7,2.5,9c1.7,2.3,3.6,4.1,5.9,5.4c2.3,1.3,4.7,2.2,7.3,2.7
		c2.5,0.5,4.8,0.7,6.7,0.7c1.5,0,3.2-0.1,5-0.4c1.8-0.2,3.4-0.7,4.9-1.3c1.5-0.6,2.7-1.5,3.7-2.7c1-1.1,1.5-2.6,1.5-4.5
		c0-2.2-1.7-4.1-5.1-5.6c-3.4-1.5-7.6-2.9-12.6-4.3c-5-1.4-10.5-3-16.4-4.9c-5.9-1.8-11.4-4.3-16.4-7.5c-5-3.2-9.2-7.2-12.6-12.2
		c-3.4-4.9-5.1-11.2-5.1-18.7c0-6.5,1.4-12.2,4.2-17c2.8-4.8,6.3-8.8,10.5-11.9c4.2-3.1,8.8-5.4,13.7-6.9c4.9-1.5,9.6-2.3,13.9-2.3
		c3.7,0,7.3,0.3,11,1c3.7,0.7,7.2,1.7,10.5,3.1c3.3,1.4,6.3,3.3,9,5.6c2.7,2.3,4.9,5.1,6.7,8.4L91.7,17h30.5v44.5H90.1
		c0-3.3-0.6-6.2-1.8-8.8c-1.2-2.5-2.8-4.7-4.9-6.5c-2.1-1.8-4.5-3.1-7.3-4c-2.8-0.9-5.7-1.3-8.8-1.3c-1.3,0-2.7,0.2-4.1,0.6
		c-1.4,0.4-2.8,1-4,1.8c-1.2,0.8-2.2,1.7-3,2.9c-0.8,1.2-1.2,2.5-1.2,4.1c0,3.1,1.7,5.6,5.2,7.6c3.5,2,7.8,3.9,13,5.7
		c5.2,1.8,10.8,3.7,16.9,5.8c6,2.1,11.7,4.6,16.9,7.7c5.2,3.1,9.6,6.9,13,11.5c3.5,4.6,5.2,10.4,5.2,17.4c0,7-1.5,12.8-4.3,17.6
		c-2.9,4.7-6.6,8.6-11.2,11.6c-4.6,3-9.6,5.2-15.2,6.5c-5.6,1.3-11,2-16.3,2c-4.5,0-8.6-0.5-12.4-1.4c-3.8-0.9-7.2-2.2-10.3-3.7
		c-3.1-1.5-5.8-3.3-8.3-5.2c-2.4-2-4.5-3.9-6.1-5.9l-2,13.7H8.3z"/>
	<path class="st2" d="M192.8,141.1h-49.7v-23.2h7.5V75.4h-7.5V52.3h41.2v65.5h8.5V141.1z M148.1,26.4c0-2,0.4-4.1,1.2-6.2
		c0.8-2.1,2-4.1,3.6-5.9c1.6-1.8,3.6-3.2,6-4.3c2.4-1.1,5.2-1.7,8.3-1.7c3.1,0,5.8,0.6,8.3,1.7c2.4,1.1,4.5,2.6,6.1,4.3
		c1.7,1.8,2.9,3.7,3.8,5.9c0.9,2.1,1.3,4.2,1.3,6.2c0,5-1.7,9.2-5,12.7c-3.3,3.5-8.2,5.2-14.6,5.2c-2.8,0-5.4-0.5-7.7-1.6
		s-4.3-2.5-6-4.2c-1.7-1.7-3-3.6-4-5.8C148.6,30.7,148.1,28.5,148.1,26.4z"/>
	<path class="st2" d="M210.6,87.8V52.3h87.8v22.9l-42.2,42.6h18.6v-12.1h25v35.3h-89.3v-23.2l42.8-42.6h-19.7v12.6H210.6z"/>
	<path class="st2" d="M367.3,141.1h-49.7v-23.2h7.5V75.4h-7.5V52.3h41.2v65.5h8.5V141.1z M322.6,26.4c0-2,0.4-4.1,1.2-6.2
		c0.8-2.1,2-4.1,3.6-5.9c1.6-1.8,3.6-3.2,6-4.3c2.4-1.1,5.2-1.7,8.3-1.7c3.1,0,5.8,0.6,8.3,1.7c2.4,1.1,4.5,2.6,6.1,4.3
		c1.7,1.8,2.9,3.7,3.8,5.9c0.9,2.1,1.3,4.2,1.3,6.2c0,5-1.7,9.2-5,12.7c-3.3,3.5-8.2,5.2-14.6,5.2c-2.8,0-5.4-0.5-7.7-1.6
		s-4.3-2.5-6-4.2c-1.7-1.7-3-3.6-4-5.8C323,30.7,322.6,28.5,322.6,26.4z"/>
	<path class="st2" d="M442.9,29.6c-0.9-0.5-2.2-0.9-3.8-1.2c-1.6-0.4-3.6-0.5-5.9-0.5c-3.8,0-5.7,3.1-5.7,9.4v15.1h16.1v23.1h-16.1
		v42.4h10.6v23.2h-52.9v-23.2h7.1V75.4H385V52.3h7.3V37.2c0-2.5,0.3-5.6,1-9.3c0.6-3.7,2.2-7.3,4.6-10.7c2.4-3.4,5.9-6.4,10.6-8.8
		c4.6-2.4,10.9-3.6,19-3.6c2.2,0,4.7,0.1,7.3,0.4c2.6,0.2,5.1,0.6,7.5,1c2.4,0.4,4.6,0.9,6.6,1.4c2,0.5,3.6,1.1,4.8,1.7L442.9,29.6z
		"/>
	<path class="st2" d="M525.8,74.9h-8.2V52.3h45.1v22h-8.5l-33.7,82c-1.3,2.8-2.8,5.7-4.5,8.7c-1.7,3-4,5.6-6.8,8.1
		c-2.8,2.4-6.4,4.4-10.7,5.9c-4.3,1.5-9.7,2.3-16.1,2.3c-4.6-0.2-8.7-1.2-12.2-2.8c-3.5-1.7-6.6-3.7-9.3-6l13.3-20.9
		c1.7,1.5,3.5,3,5.6,4.3c2.1,1.3,4.1,2,6.1,2c2.4,0,4.4-1,6.1-3c1.7-2,3-4.2,3.8-6.6l2.5-7.5L463.6,75h-7.3V52.3H511v22.5h-8.3
		l11.5,27.7L525.8,74.9z"/>
</g>
</svg>
