<?xml version="1.0" encoding="iso-8859-1"?>
<!-- Generator: Adobe Illustrator 19.0.0, SVG Export Plug-In . SVG Version: 6.00 Build 0)  -->
<svg xmlns="http://www.w3.org/2000/svg" xmlns:xlink="http://www.w3.org/1999/xlink" version="1.1" id="Layer_1" x="0px" y="0px" viewBox="0 0 512 512" style="enable-background:new 0 0 512 512;" xml:space="preserve" width="512px" height="512px">
<g>
	<g>
		<path d="M132.824,99.902c-4.329-4.329-10.332-6.811-16.46-6.811s-12.133,2.482-16.462,6.811    c-4.329,4.329-6.811,10.333-6.811,16.462s2.482,12.117,6.811,16.462c4.343,4.329,10.333,6.811,16.462,6.811    s12.117-2.482,16.46-6.811c4.329-4.344,6.813-10.333,6.813-16.462S137.152,104.246,132.824,99.902z" fill="#FFFFFF"/>
	</g>
</g>
<g>
	<g>
		<path d="M209.455,0H23.273C10.42,0,0,10.42,0,23.273v186.182c0,12.853,10.42,23.273,23.273,23.273h186.182    c12.853,0,23.273-10.42,23.273-23.273V23.273C232.727,10.42,222.307,0,209.455,0z M186.182,186.182H46.545V46.545h139.636V186.182    z" fill="#FFFFFF"/>
	</g>
</g>
<g>
	<g>
		<path d="M412.096,99.902c-4.343-4.329-10.331-6.811-16.46-6.811c-6.128,0-12.133,2.482-16.462,6.811    c-4.329,4.344-6.811,10.333-6.811,16.462s2.482,12.117,6.811,16.462c4.329,4.329,10.333,6.811,16.462,6.811    c6.129,0,12.117-2.482,16.46-6.811c4.329-4.344,6.813-10.333,6.813-16.462S416.425,104.246,412.096,99.902z" fill="#FFFFFF"/>
	</g>
</g>
<g>
	<g>
		<path d="M488.727,0H302.545c-12.853,0-23.273,10.42-23.273,23.273v186.182c0,12.853,10.42,23.273,23.273,23.273h186.182    c12.853,0,23.273-10.42,23.273-23.273V23.273C512,10.42,501.58,0,488.727,0z M465.455,186.182H325.818V46.545h139.636V186.182z" fill="#FFFFFF"/>
	</g>
</g>
<g>
	<g>
		<path d="M132.824,379.175c-4.343-4.329-10.332-6.811-16.46-6.811s-12.119,2.482-16.462,6.811    c-4.329,4.344-6.811,10.333-6.811,16.462c0,6.129,2.482,12.133,6.811,16.462c4.343,4.329,10.333,6.811,16.462,6.811    s12.117-2.482,16.46-6.811c4.329-4.344,6.813-10.333,6.813-16.462C139.636,389.508,137.152,383.519,132.824,379.175z" fill="#FFFFFF"/>
	</g>
</g>
<g>
	<g>
		<path d="M209.455,279.273H23.273C10.42,279.273,0,289.693,0,302.545v186.182C0,501.58,10.42,512,23.273,512h186.182    c12.853,0,23.273-10.42,23.273-23.273V302.545C232.727,289.693,222.307,279.273,209.455,279.273z M186.182,465.455H46.545V325.818    h139.636V465.455z" fill="#FFFFFF"/>
	</g>
</g>
<g>
	<g>
		<path d="M411.151,372.364h-15.515c-12.853,0-23.273,10.42-23.273,23.273c0,12.853,10.42,23.273,23.273,23.273h15.515    c12.853,0,23.273-10.42,23.273-23.273C434.424,382.784,424.004,372.364,411.151,372.364z" fill="#FFFFFF"/>
	</g>
</g>
<g>
	<g>
		<path d="M488.727,418.909c-12.853,0-23.273,10.42-23.273,23.273v23.273h-54.303c-12.853,0-23.273,10.42-23.273,23.273    c0,12.853,10.42,23.273,23.273,23.273h77.576C501.58,512,512,501.58,512,488.727v-46.545    C512,429.329,501.58,418.909,488.727,418.909z" fill="#FFFFFF"/>
	</g>
</g>
<g>
	<g>
		<path d="M302.545,372.364c-12.853,0-23.273,10.42-23.273,23.273v31.03c0,12.853,10.42,23.273,23.273,23.273    c12.853,0,23.273-10.42,23.273-23.273v-31.03C325.818,382.784,315.398,372.364,302.545,372.364z" fill="#FFFFFF"/>
	</g>
</g>
<g>
	<g>
		<path d="M411.151,279.273h-46.545c-12.853,0-23.273,10.42-23.273,23.273c0,12.853,10.42,23.273,23.273,23.273h46.545    c12.853,0,23.273-10.42,23.273-23.273C434.424,289.693,424.004,279.273,411.151,279.273z" fill="#FFFFFF"/>
	</g>
</g>
<g>
</g>
<g>
</g>
<g>
</g>
<g>
</g>
<g>
</g>
<g>
</g>
<g>
</g>
<g>
</g>
<g>
</g>
<g>
</g>
<g>
</g>
<g>
</g>
<g>
</g>
<g>
</g>
<g>
</g>
</svg>
