<?xml version="1.0" encoding="iso-8859-1"?>
<!-- Generator: Adobe Illustrator 19.0.0, SVG Export Plug-In . SVG Version: 6.00 Build 0)  -->
<svg xmlns="http://www.w3.org/2000/svg" xmlns:xlink="http://www.w3.org/1999/xlink" version="1.1" id="Layer_1" x="0px" y="0px" viewBox="0 0 512 512" style="enable-background:new 0 0 512 512;" xml:space="preserve" width="512px" height="512px">
<g>
	<g>
		<path d="M469.333,85.333H42.667C19.146,85.333,0,104.469,0,128v256c0,23.531,19.146,42.667,42.667,42.667h426.667    C492.854,426.667,512,407.531,512,384V128C512,104.469,492.854,85.333,469.333,85.333z M224,149.333    c0-5.896,4.771-10.667,10.667-10.667h42.667c5.896,0,10.667,4.771,10.667,10.667V192c0,5.896-4.771,10.667-10.667,10.667h-42.667    c-5.896,0-10.667-4.771-10.667-10.667V149.333z M224,234.667c0-5.896,4.771-10.667,10.667-10.667h42.667    c5.896,0,10.667,4.771,10.667,10.667v42.667c0,5.896-4.771,10.667-10.667,10.667h-42.667c-5.896,0-10.667-4.771-10.667-10.667    V234.667z M138.667,149.333c0-5.896,4.771-10.667,10.667-10.667H192c5.896,0,10.667,4.771,10.667,10.667V192    c0,5.896-4.771,10.667-10.667,10.667h-42.667c-5.896,0-10.667-4.771-10.667-10.667V149.333z M138.667,234.667    c0-5.896,4.771-10.667,10.667-10.667H192c5.896,0,10.667,4.771,10.667,10.667v42.667c0,5.896-4.771,10.667-10.667,10.667h-42.667    c-5.896,0-10.667-4.771-10.667-10.667V234.667z M117.333,362.667c0,5.896-4.771,10.667-10.667,10.667H64    c-5.896,0-10.667-4.771-10.667-10.667V320c0-5.896,4.771-10.667,10.667-10.667h42.667c5.896,0,10.667,4.771,10.667,10.667V362.667    z M117.333,277.333c0,5.896-4.771,10.667-10.667,10.667H64c-5.896,0-10.667-4.771-10.667-10.667v-42.667    C53.333,228.771,58.104,224,64,224h42.667c5.896,0,10.667,4.771,10.667,10.667V277.333z M117.333,192    c0,5.896-4.771,10.667-10.667,10.667H64c-5.896,0-10.667-4.771-10.667-10.667v-42.667c0-5.896,4.771-10.667,10.667-10.667h42.667    c5.896,0,10.667,4.771,10.667,10.667V192z M373.333,362.667c0,5.896-4.771,10.667-10.667,10.667H149.333    c-5.896,0-10.667-4.771-10.667-10.667V320c0-5.896,4.771-10.667,10.667-10.667h213.333c5.896,0,10.667,4.771,10.667,10.667    V362.667z M373.333,277.333c0,5.896-4.771,10.667-10.667,10.667H320c-5.896,0-10.667-4.771-10.667-10.667v-42.667    c0-5.896,4.771-10.667,10.667-10.667h42.667c5.896,0,10.667,4.771,10.667,10.667V277.333z M373.333,192    c0,5.896-4.771,10.667-10.667,10.667H320c-5.896,0-10.667-4.771-10.667-10.667v-42.667c0-5.896,4.771-10.667,10.667-10.667h42.667    c5.896,0,10.667,4.771,10.667,10.667V192z M458.667,362.667c0,5.896-4.771,10.667-10.667,10.667h-42.667    c-5.896,0-10.667-4.771-10.667-10.667V320c0-5.896,4.771-10.667,10.667-10.667H448c5.896,0,10.667,4.771,10.667,10.667V362.667z     M458.667,277.333c0,5.896-4.771,10.667-10.667,10.667h-42.667c-5.896,0-10.667-4.771-10.667-10.667v-42.667    c0-5.896,4.771-10.667,10.667-10.667H448c5.896,0,10.667,4.771,10.667,10.667V277.333z M458.667,192    c0,5.896-4.771,10.667-10.667,10.667h-42.667c-5.896,0-10.667-4.771-10.667-10.667v-42.667c0-5.896,4.771-10.667,10.667-10.667    H448c5.896,0,10.667,4.771,10.667,10.667V192z" fill="#FFFFFF"/>
	</g>
</g>
<g>
</g>
<g>
</g>
<g>
</g>
<g>
</g>
<g>
</g>
<g>
</g>
<g>
</g>
<g>
</g>
<g>
</g>
<g>
</g>
<g>
</g>
<g>
</g>
<g>
</g>
<g>
</g>
<g>
</g>
</svg>
