<?xml version="1.0" encoding="utf-8"?>
<!-- Generator: Adobe Illustrator 22.0.1, SVG Export Plug-In . SVG Version: 6.00 Build 0)  -->
<svg version="1.1" id="Capa_1" xmlns="http://www.w3.org/2000/svg" xmlns:xlink="http://www.w3.org/1999/xlink" x="0px" y="0px"
	 viewBox="0 0 480 480" style="enable-background:new 0 0 480 480;" xml:space="preserve">
<style type="text/css">
	.st0{fill:#FFFFFF;}
</style>
<g>
	<g>
		<path class="st0" d="M480,272V40c0-22.1-17.9-40-40-40H88C65.9,0,48,17.9,48,40v160H24c-13.2,0-24,10.8-24,24v232
			c0,13.2,10.8,24,24,24h168c13.2,0,24-10.8,24-24v-48h24v48c0,13.2,10.8,24,24,24h192c13.2,0,24-10.8,24-24v-88
			c0-13.2-10.8-24-24-24h-98.2l-10.7-32H440C462.1,312,480,294.1,480,272z M200,456c0,4.4-3.6,8-8,8H24c-4.4,0-8-3.6-8-8v-16h184
			V456z M200,424H16V256h184V424z M200,240H16v-16c0-4.4,3.6-8,8-8h168c4.4,0,8,3.6,8,8V240z M192,200H64V40c0-13.2,10.8-24,24-24
			h352c13.2,0,24,10.8,24,24v200H216v-16C216,210.8,205.2,200,192,200z M240,392h-24v-16h24V392z M241.5,360H216v-48h114.2l10.7,32
			H264C253.6,344,244.8,350.7,241.5,360z M272,464h-8c-4.4,0-8-3.6-8-8v-88c0-4.4,3.6-8,8-8h8V464z M448,360h8c4.4,0,8,3.6,8,8v88
			c0,4.4-3.6,8-8,8h-8V360z M432,360v104H288V360H432z M216,296v-40h248v16c0,13.2-10.8,24-24,24H216z"/>
	</g>
</g>
<g>
	<g>
		
			<rect x="156.1" y="112" transform="matrix(0.7071 -0.7071 0.7071 0.7071 -19.2307 193.5319)" class="st0" width="135.8" height="16"/>
	</g>
</g>
<g>
	<g>
		
			<rect x="252.1" y="112" transform="matrix(0.7071 -0.7071 0.7071 0.7071 8.8714 261.4213)" class="st0" width="135.8" height="16"/>
	</g>
</g>
<g>
	<g>
		
			<rect x="34.7" y="320" transform="matrix(0.7071 -0.7071 0.7071 0.7071 -208.5012 152.6325)" class="st0" width="90.5" height="16"/>
	</g>
</g>
<g>
	<g>
		
			<rect x="82.7" y="336" transform="matrix(0.7071 -0.7071 0.7071 0.7071 -205.7543 191.2579)" class="st0" width="90.5" height="16"/>
	</g>
</g>
<g>
	<g>
		
			<rect x="302.1" y="400" transform="matrix(0.7071 -0.7071 0.7071 0.7071 -190.092 357.0814)" class="st0" width="67.9" height="16"/>
	</g>
</g>
<g>
	<g>
		
			<rect x="350" y="400" transform="matrix(0.7071 -0.7071 0.7071 0.7071 -176.0359 391.0209)" class="st0" width="67.9" height="16"/>
	</g>
</g>
<g>
	<g>
		<rect x="432" y="208" class="st0" width="16" height="16"/>
	</g>
</g>
<g>
	<g>
		<rect x="400" y="208" class="st0" width="16" height="16"/>
	</g>
</g>
<g>
	<g>
		<rect x="368" y="208" class="st0" width="16" height="16"/>
	</g>
</g>
</svg>
