<?xml version="1.0" encoding="utf-8"?>
<!-- Generator: Adobe Illustrator 21.0.2, SVG Export Plug-In . SVG Version: 6.00 Build 0)  -->
<svg version="1.1" id="Capa_1" xmlns="http://www.w3.org/2000/svg" xmlns:xlink="http://www.w3.org/1999/xlink" x="0px" y="0px"
	 viewBox="0 0 512 512" style="enable-background:new 0 0 512 512;" xml:space="preserve">
<style type="text/css">
	.st0{fill:#FFFFFF;}
</style>
<g>
	<path class="st0" d="M512,368V144c0-26.4-21.6-48-48-48H48c-26.4,0-48,21.6-48,48v224c0,26.4,21.6,48,48,48h416
		C490.4,416,512,394.4,512,368z M488,192v128h-16V192H488z M32,256c0-17.7,14.3-32,32-32s32,14.3,32,32s-14.3,32-32,32
		S32,273.7,32,256z M128,384V128h320v256H128z"/>
</g>
</svg>
