<?xml version="1.0" encoding="utf-8"?>
<!-- Generator: Adobe Illustrator 22.0.1, SVG Export Plug-In . SVG Version: 6.00 Build 0)  -->
<svg version="1.1" id="Camada_1" xmlns="http://www.w3.org/2000/svg" xmlns:xlink="http://www.w3.org/1999/xlink" x="0px" y="0px"
	 viewBox="0 0 778.9 186.1" style="enable-background:new 0 0 778.9 186.1;" xml:space="preserve">
<style type="text/css">
	.st0{fill:#FFFFFF;}
</style>
<g>
	<path class="st0" d="M216.3,141.1V96.3h33c0,3.7,0.8,6.7,2.5,9s3.6,4.1,5.9,5.4c2.3,1.3,4.7,2.2,7.3,2.7c2.5,0.5,4.8,0.7,6.7,0.7
		c1.5,0,3.2-0.1,5-0.4c1.8-0.2,3.4-0.7,4.9-1.3c1.5-0.6,2.7-1.5,3.7-2.7c1-1.1,1.5-2.6,1.5-4.5c0-2.2-1.7-4.1-5.1-5.6
		c-3.4-1.5-7.6-2.9-12.6-4.3s-10.5-3-16.4-4.9c-5.9-1.8-11.4-4.3-16.4-7.5c-5-3.2-9.2-7.2-12.6-12.2c-3.4-4.9-5.1-11.2-5.1-18.7
		c0-6.5,1.4-12.2,4.2-17c2.8-4.8,6.3-8.8,10.5-11.9c4.2-3.1,8.8-5.4,13.7-6.9c4.9-1.5,9.6-2.3,13.9-2.3c3.7,0,7.3,0.3,11,1
		c3.7,0.7,7.2,1.7,10.5,3.1s6.3,3.3,9,5.6s4.9,5.1,6.7,8.4l1.6-15h30.5v44.5h-32.1c0-3.3-0.6-6.2-1.8-8.8c-1.2-2.5-2.8-4.7-4.9-6.5
		s-4.5-3.1-7.3-4c-2.8-0.9-5.7-1.3-8.8-1.3c-1.3,0-2.7,0.2-4.1,0.6c-1.4,0.4-2.8,1-4,1.8c-1.2,0.8-2.2,1.7-3,2.9
		c-0.8,1.2-1.2,2.5-1.2,4.1c0,3.1,1.7,5.6,5.2,7.6s7.8,3.9,13,5.7c5.2,1.8,10.8,3.7,16.9,5.8c6,2.1,11.7,4.6,16.9,7.7
		c5.2,3.1,9.6,6.9,13,11.5c3.5,4.6,5.2,10.4,5.2,17.4s-1.5,12.8-4.3,17.6c-2.9,4.7-6.6,8.6-11.2,11.6s-9.6,5.2-15.2,6.5
		c-5.6,1.3-11,2-16.3,2c-4.5,0-8.6-0.5-12.4-1.4c-3.8-0.9-7.2-2.2-10.3-3.7s-5.8-3.3-8.3-5.2c-2.4-2-4.5-3.9-6.1-5.9l-2,13.7h-30.8
		V141.1z"/>
	<path class="st0" d="M400.8,141.1h-49.7v-23.2h7.5V75.4h-7.5V52.3h41.2v65.5h8.5V141.1z M356.1,26.4c0-2,0.4-4.1,1.2-6.2
		c0.8-2.1,2-4.1,3.6-5.9c1.6-1.8,3.6-3.2,6-4.3c2.4-1.1,5.2-1.7,8.3-1.7s5.8,0.6,8.3,1.7c2.4,1.1,4.5,2.6,6.1,4.3
		c1.7,1.8,2.9,3.7,3.8,5.9c0.9,2.1,1.3,4.2,1.3,6.2c0,5-1.7,9.2-5,12.7c-3.3,3.5-8.2,5.2-14.6,5.2c-2.8,0-5.4-0.5-7.7-1.6
		s-4.3-2.5-6-4.2s-3-3.6-4-5.8C356.6,30.7,356.1,28.5,356.1,26.4z"/>
	<path class="st0" d="M418.6,87.8V52.3h87.8v22.9l-42.2,42.6h18.6v-12.1h25V141h-89.3v-23.2l42.8-42.6h-19.7v12.6H418.6z"/>
	<path class="st0" d="M575.3,141.1h-49.7v-23.2h7.5V75.4h-7.5V52.3h41.2v65.5h8.5V141.1z M530.6,26.4c0-2,0.4-4.1,1.2-6.2
		c0.8-2.1,2-4.1,3.6-5.9s3.6-3.2,6-4.3s5.2-1.7,8.3-1.7c3.1,0,5.8,0.6,8.3,1.7c2.4,1.1,4.5,2.6,6.1,4.3c1.7,1.8,2.9,3.7,3.8,5.9
		c0.9,2.1,1.3,4.2,1.3,6.2c0,5-1.7,9.2-5,12.7c-3.3,3.5-8.2,5.2-14.6,5.2c-2.8,0-5.4-0.5-7.7-1.6s-4.3-2.5-6-4.2s-3-3.6-4-5.8
		C531,30.7,530.6,28.5,530.6,26.4z"/>
	<path class="st0" d="M650.9,29.6c-0.9-0.5-2.2-0.9-3.8-1.2c-1.6-0.4-3.6-0.5-5.9-0.5c-3.8,0-5.7,3.1-5.7,9.4v15.1h16.1v23.1h-16.1
		v42.4h10.6v23.2h-52.9v-23.2h7.1V75.4H593V52.3h7.3V37.2c0-2.5,0.3-5.6,1-9.3c0.6-3.7,2.2-7.3,4.6-10.7c2.4-3.4,5.9-6.4,10.6-8.8
		c4.6-2.4,10.9-3.6,19-3.6c2.2,0,4.7,0.1,7.3,0.4c2.6,0.2,5.1,0.6,7.5,1s4.6,0.9,6.6,1.4s3.6,1.1,4.8,1.7L650.9,29.6z"/>
	<path class="st0" d="M733.8,74.9h-8.2V52.3h45.1v22h-8.5l-33.7,82c-1.3,2.8-2.8,5.7-4.5,8.7s-4,5.6-6.8,8.1
		c-2.8,2.4-6.4,4.4-10.7,5.9s-9.7,2.3-16.1,2.3c-4.6-0.2-8.7-1.2-12.2-2.8c-3.5-1.7-6.6-3.7-9.3-6l13.3-20.9c1.7,1.5,3.5,3,5.6,4.3
		s4.1,2,6.1,2c2.4,0,4.4-1,6.1-3s3-4.2,3.8-6.6l2.5-7.5L671.6,75h-7.3V52.3H719v22.5h-8.3l11.5,27.7L733.8,74.9z"/>
</g>
<rect x="100.6" y="20.5" class="st0" width="68.8" height="145.1"/>
<rect x="9.4" y="20.5" class="st0" width="68.8" height="106"/>
</svg>
