<?xml version="1.0" encoding="iso-8859-1"?>
<!-- Generator: Adobe Illustrator 19.1.0, SVG Export Plug-In . SVG Version: 6.00 Build 0)  -->
<svg version="1.1" id="Capa_1" xmlns="http://www.w3.org/2000/svg" xmlns:xlink="http://www.w3.org/1999/xlink" x="0px" y="0px"
	 viewBox="0 0 538.261 538.261" style="enable-background:new 0 0 538.261 538.261;" xml:space="preserve">
<g>
	<path d="M479.337,147.181h-84.42V29.857c0-16.4-13.44-29.857-29.82-29.857H47.157c-16.38,0-29.82,13.457-29.82,29.857v478.548
		c0,16.4,13.44,29.857,29.82,29.857h284.34h0.42l0,0h29.4h3.78l0,0h114.24c23.1,0,41.58-18.923,41.58-41.631V189.653
		C521.337,166.104,502.437,147.181,479.337,147.181z M386.937,172.412h37.38c4.62,0,8.4,3.785,8.4,8.41c0,4.626-3.78,8.41-8.4,8.41
		h-37.38c-4.62,0-8.4-3.785-8.4-8.41C378.537,176.196,382.317,172.412,386.937,172.412z M176.517,33.641h59.64
		c4.62,0,8.4,3.785,8.4,8.41s-3.78,8.41-8.4,8.41h-59.64c-4.62,0-8.4-3.785-8.4-8.41S171.897,33.641,176.517,33.641z
		 M145.437,36.164c3.36-3.364,8.82-3.364,11.76,0c1.68,1.682,2.52,3.785,2.52,5.887c0,2.103-0.84,4.205-2.52,5.887
		c-1.26,1.682-3.36,2.523-5.88,2.523c-2.1,0-4.2-0.841-5.88-2.523c-1.68-1.682-2.52-3.785-2.52-5.887
		C142.917,39.949,144.177,37.846,145.437,36.164z M204.657,521.861c-13.86,0-25.2-11.354-25.2-25.231s11.34-25.231,25.2-25.231
		s25.2,11.354,25.2,25.231S218.517,521.861,204.657,521.861z M290.337,189.232v264.925h-247.8V79.898h327.6v67.283h-38.22
		C309.237,147.181,290.337,166.104,290.337,189.232z M370.137,181.243c0,2.103-0.84,4.205-2.52,5.887
		c-1.68,1.682-3.78,2.523-5.88,2.523s-4.2-0.841-5.88-2.523c-1.68-1.682-2.52-3.785-2.52-5.887s0.84-4.205,2.52-5.887
		c2.94-3.364,8.82-3.364,11.76,0C369.297,177.037,370.137,179.14,370.137,181.243z M405.837,526.066
		c-13.02,0-23.52-10.513-23.52-23.549c0-13.036,10.5-23.549,23.52-23.549s23.52,10.513,23.52,23.549
		C429.357,515.553,418.857,526.066,405.837,526.066z M500.337,466.773h-189v-252.31h189V466.773z"/>
</g>
<g>
</g>
<g>
</g>
<g>
</g>
<g>
</g>
<g>
</g>
<g>
</g>
<g>
</g>
<g>
</g>
<g>
</g>
<g>
</g>
<g>
</g>
<g>
</g>
<g>
</g>
<g>
</g>
<g>
</g>
</svg>
