<?xml version="1.0" encoding="utf-8"?>
<!-- Generator: Adobe Illustrator 21.0.2, SVG Export Plug-In . SVG Version: 6.00 Build 0)  -->
<svg version="1.1" xmlns="http://www.w3.org/2000/svg" xmlns:xlink="http://www.w3.org/1999/xlink" x="0px" y="0px"
	 viewBox="0 0 628 544" style="enable-background:new 0 0 628 544;" xml:space="preserve">
<style type="text/css">
	.st0{display:none;fill:#FF9827;}
	.st1{opacity:5.000000e-02;}
	.st2{stroke:#000000;stroke-width:0.5;stroke-miterlimit:10;}
	.st3{fill:#F9F8F7;}
	.st4{fill:#DDDDDD;}
	.st5{fill:#FFFFFF;stroke:#CCCCCC;stroke-width:0.5;stroke-miterlimit:10;}
	.st6{fill:#EFEFED;}
	.st7{fill:#E5E4E3;}
	.st8{fill:#FFFFFF;}
	.st9{stroke:#000000;stroke-width:1.9864;stroke-miterlimit:10;}
	.st10{stroke:#000000;stroke-width:0.9932;stroke-miterlimit:10;}
	.st11{fill:none;stroke:#000000;stroke-width:0.9932;stroke-linecap:round;stroke-miterlimit:10;}
	.st12{fill:#F9F8F7;stroke:#DDDDDD;stroke-width:1.9864;stroke-miterlimit:10;}
	.st13{fill:#F9F8F7;stroke:#DDDDDD;stroke-width:0.9932;stroke-miterlimit:10;}
	.st14{fill:none;stroke:#353434;stroke-width:0.9932;stroke-linecap:round;stroke-miterlimit:10;}
	.st15{fill:#353434;}
	.st16{fill:#525656;}
	.st17{fill:#545959;stroke:#CCCCCC;stroke-width:0.5;stroke-miterlimit:10;}
</style>
<g id="DESIGNED_BY_FREEPIK">
	<rect x="-171" y="-244" class="st0" width="976" height="911"/>
</g>
<g id="OBJECTS">
	<g id="XMLID_243_">
		<g class="st1">
			<path id="XMLID_291_" d="M203.4,329.5c0,5.7-4.6,10.3-10.3,10.3H17c-5.7,0-10.3-4.6-10.3-10.3V94.2c0-5.7,4.6-10.3,10.3-10.3h176
				c5.7,0,10.3,4.6,10.3,10.3V329.5z"/>
			<path id="XMLID_287_" d="M193.1,340.7H17c-6.2,0-11.2-5-11.2-11.2V94.2c0-6.2,5-11.2,11.2-11.2h176c6.2,0,11.2,5,11.2,11.2v235.3
				C204.3,335.6,199.2,340.7,193.1,340.7z M17,84.7c-5.2,0-9.5,4.3-9.5,9.5v235.3c0,5.2,4.3,9.5,9.5,9.5h176c5.2,0,9.5-4.3,9.5-9.5
				V94.2c0-5.2-4.3-9.5-9.5-9.5H17z"/>
			<rect id="XMLID_286_" x="25.3" y="103.2" class="st2" width="159.6" height="209.4"/>
			<circle id="XMLID_283_" cx="105.1" cy="326.2" r="7.7"/>
			<path id="XMLID_280_" d="M105.1,329.6c-1.9,0-3.4-1.5-3.4-3.4c0-1.9,1.5-3.4,3.4-3.4c1.9,0,3.4,1.5,3.4,3.4
				C108.5,328.1,106.9,329.6,105.1,329.6z M105.1,323.7c-1.4,0-2.5,1.1-2.5,2.5c0,1.4,1.1,2.5,2.5,2.5c1.4,0,2.5-1.1,2.5-2.5
				C107.6,324.9,106.4,323.7,105.1,323.7z"/>
		</g>
		<g>
			<g>
				<g id="XMLID_244_">
					<path id="XMLID_249_" class="st3" d="M197.7,323.7c0,5.7-4.6,10.3-10.3,10.3h-176c-5.7,0-10.3-4.6-10.3-10.3V88.5
						c0-5.7,4.6-10.3,10.3-10.3h176c5.7,0,10.3,4.6,10.3,10.3V323.7z"/>
					<path id="XMLID_245_" class="st4" d="M187.3,334.9h-176c-6.2,0-11.2-5-11.2-11.2V88.5c0-6.2,5-11.2,11.2-11.2h176
						c6.2,0,11.2,5,11.2,11.2v235.3C198.5,329.9,193.5,334.9,187.3,334.9z M11.3,78.9c-5.2,0-9.5,4.3-9.5,9.5v235.3
						c0,5.2,4.3,9.5,9.5,9.5h176c5.2,0,9.5-4.3,9.5-9.5V88.5c0-5.2-4.3-9.5-9.5-9.5H11.3z"/>
				</g>
				<rect id="XMLID_242_" x="19.5" y="97.4" class="st5" width="159.6" height="209.4"/>
				<circle id="XMLID_237_" class="st7" cx="99.3" cy="320.5" r="7.7"/>
				<path id="XMLID_234_" class="st8" d="M99.3,323.9c-1.9,0-3.4-1.5-3.4-3.4c0-1.9,1.5-3.4,3.4-3.4c1.9,0,3.4,1.5,3.4,3.4
					C102.7,322.3,101.2,323.9,99.3,323.9z M99.3,318c-1.4,0-2.5,1.1-2.5,2.5c0,1.4,1.1,2.5,2.5,2.5c1.4,0,2.5-1.1,2.5-2.5
					C101.8,319.1,100.7,318,99.3,318z"/>
			</g>
		</g>
	</g>
	<g id="XMLID_208_">
		<g id="XMLID_96_">
			<g class="st1">
				<path id="XMLID_145_" class="st9" d="M625.6,283.6c0,8.6-6.9,15.6-15.5,15.6l-56.6,0.1c-8.6,0-15.6-6.9-15.6-15.5l-0.4-146
					c0-8.6,6.9-15.6,15.5-15.6l56.6-0.1c8.6,0,15.6,6.9,15.6,15.5L625.6,283.6z"/>
				
					<rect id="XMLID_143_" x="543" y="144" transform="matrix(1 -2.468505e-03 2.468505e-03 1 -0.5205 1.4358)" class="st2" width="76.8" height="135.1"/>
				
					<ellipse id="XMLID_141_" transform="matrix(1 -2.469262e-03 2.469262e-03 1 -0.7111 1.4386)" class="st10" cx="582.2" cy="288.7" rx="6.6" ry="6.6"/>
				<line id="XMLID_138_" class="st11" x1="575.2" y1="134.4" x2="588.5" y2="134.4"/>
				
					<ellipse id="XMLID_137_" transform="matrix(1 -2.443973e-03 2.443973e-03 1 -0.3257 1.3881)" cx="567.8" cy="134" rx="1.8" ry="1.8"/>
				
					<ellipse id="XMLID_136_" transform="matrix(1 -2.483641e-03 2.483641e-03 1 -0.3181 1.4455)" cx="581.8" cy="128.8" rx="1.1" ry="1.1"/>
			</g>
			<g>
				<g>
					<path id="XMLID_115_" class="st12" d="M618,276c0,8.6-6.9,15.6-15.5,15.6l-56.6,0.1c-8.6,0-15.6-6.9-15.6-15.5l-0.4-146
						c0-8.6,6.9-15.6,15.5-15.6l56.6-0.1c8.6,0,15.6,6.9,15.6,15.5L618,276z"/>
					
						<rect id="XMLID_113_" x="535.4" y="136.4" transform="matrix(1 -2.468505e-03 2.468505e-03 1 -0.5017 1.417)" class="st5" width="76.8" height="135.1"/>
					
						<ellipse id="XMLID_112_" transform="matrix(1 -2.469262e-03 2.469262e-03 1 -0.6924 1.4198)" class="st13" cx="574.6" cy="281.1" rx="6.6" ry="6.6"/>
					<line id="XMLID_111_" class="st14" x1="567.6" y1="126.8" x2="580.9" y2="126.8"/>
					
						<ellipse id="XMLID_110_" transform="matrix(1 -2.443973e-03 2.443973e-03 1 -0.3071 1.3695)" class="st15" cx="560.2" cy="126.4" rx="1.8" ry="1.8"/>
					
						<ellipse id="XMLID_109_" transform="matrix(1 -2.483641e-03 2.483641e-03 1 -0.2992 1.4266)" class="st15" cx="574.3" cy="121.2" rx="1.1" ry="1.1"/>
				</g>
			</g>
		</g>
	</g>
	<g id="XMLID_228_">
		<g id="XMLID_131_">
			<g id="XMLID_142_">
				<g id="XMLID_148_">
					<path id="XMLID_177_" class="st3" d="M554.7,518.1c0,6.5-5.3,11.8-11.8,11.8H111.1c-6.5,0-11.8-5.3-11.8-11.8V244.9
						c0-6.5,5.3-11.8,11.8-11.8h431.7c6.5,0,11.8,5.3,11.8,11.8V518.1z"/>
					<path id="XMLID_167_" class="st16" d="M71.9,515.7v10.4c0,6.8,5.5,12.3,12.3,12.3h485.6c6.8,0,12.3-5.5,12.3-12.3v-10.4H71.9z"
						/>
					<rect id="XMLID_163_" x="117" y="250.9" class="st5" width="419.9" height="246.6"/>
				</g>
			</g>
			<path id="XMLID_132_" class="st17" d="M400.3,526.9c0,1.7-1.4,3.1-3.1,3.1H256.7c-1.7,0-3.1-1.4-3.1-3.1l0,0
				c0-1.7,1.4-3.1,3.1-3.1h140.5C399,523.8,400.3,525.2,400.3,526.9L400.3,526.9z"/>
		</g>
		<g id="XMLID_212_">
			<rect id="XMLID_133_" x="146.3" y="431.5" class="st16" width="361.3" height="7.7"/>
			<rect id="XMLID_139_" x="146.3" y="446.2" class="st3" width="167.7" height="4.1"/>
			<rect id="XMLID_140_" x="339.9" y="446.2" class="st3" width="167.7" height="4.1"/>
			<rect id="XMLID_181_" x="146.3" y="455.4" class="st3" width="167.7" height="4.1"/>
			<rect id="XMLID_166_" x="339.9" y="455.4" class="st3" width="167.7" height="4.1"/>
			<rect id="XMLID_185_" x="146.3" y="473.9" class="st3" width="167.7" height="4.1"/>
			<rect id="XMLID_184_" x="339.9" y="473.9" class="st3" width="167.7" height="4.1"/>
			<rect id="XMLID_206_" x="146.3" y="464.6" class="st3" width="167.7" height="4.1"/>
			<rect id="XMLID_188_" x="339.9" y="464.6" class="st3" width="167.7" height="4.1"/>
			<rect id="XMLID_209_" x="146.3" y="483.1" class="st3" width="167.7" height="4.1"/>
			<rect id="XMLID_207_" x="339.9" y="483.1" class="st3" width="167.7" height="4.1"/>
		</g>
	</g>
</g>
<g id="Camada_3">
	<g id="XMLID_479_">
		<g>
			<path id="XMLID_18_" class="st16" d="M601.8,22h-56c-6.2,0-11.3,6.4-11.3,14.2v28.6c0,7.9,5.1,14.2,11.3,14.2h20.6l7.7,20.9
				l7.4-20.9h20.2c6.2,0,11.3-6.4,11.3-14.2V36.2C613.1,28.4,608.1,22,601.8,22z"/>
		</g>
	</g>
	<g id="XMLID_1_">
		<g>
			<path id="XMLID_16_" class="st16" d="M364.8,163h-56c-6.2,0-11.3,6.4-11.3,14.2v28.6c0,7.9,5.1,14.2,11.3,14.2h20.6l7.7,20.9
				l7.4-20.9h20.2c6.2,0,11.3-6.4,11.3-14.2v-28.6C376.1,169.4,371.1,163,364.8,163z"/>
		</g>
	</g>
	<g id="XMLID_4_">
		<g>
			<path id="XMLID_15_" class="st16" d="M173.8,0h-56c-6.2,0-11.3,6.4-11.3,14.2v28.6c0,7.9,5.1,14.2,11.3,14.2h20.6l7.7,20.9
				l7.4-20.9h20.2c6.2,0,11.3-6.4,11.3-14.2V14.2C185.1,6.4,180.1,0,173.8,0z"/>
		</g>
	</g>
	<g>
		<path class="st8" d="M562.3,55.5c0,4.7-3.8,8.5-8.5,8.5c-4.4,0-8-3.3-8.4-7.6c0,0,0,0,0-0.1c0-0.7-0.1-1.3-0.1-2
			c0-2.3,0.3-4.9,1.2-7.2c0.9-2.3,2.3-4.5,4.5-6c1.5-1,3.3-1.6,5.3-1.6c1.1,0,2,0.8,2,1.9c0,1-0.8,1.9-1.9,2c-1.3,0-2.4,0.4-3.3,1
			c-0.9,0.6-1.6,1.4-2.2,2.5c-0.2,0.3-0.3,0.6-0.5,0.9c1-0.5,2.2-0.7,3.4-0.7C558.5,47.1,562.3,50.8,562.3,55.5z M558.4,55.5
			c0-2.5-2.1-4.6-4.6-4.6c-2.6,0-4.6,2.1-4.6,4.6c0,2.6,2,4.6,4.6,4.6C556.3,60.1,558.4,58.1,558.4,55.5z"/>
		<path class="st8" d="M577.2,49.2c1.7,1.7,2.6,3.9,2.6,6.2c0,2.2-0.9,4.4-2.6,6.1c-1.7,1.7-3.9,2.6-6.1,2.6c-0.1,0-0.1,0-0.1,0
			c-2.2,0-4.4-0.8-6.1-2.6c-0.8-0.7-0.8-2,0-2.8c0.7-0.8,2-0.8,2.8,0c0.9,0.9,2.1,1.4,3.4,1.4c1.2,0,2.4-0.5,3.3-1.4
			c0.9-0.9,1.4-2.1,1.4-3.3c0-1.3-0.5-2.5-1.4-3.4c-0.9-0.9-2.1-1.4-3.3-1.4c-1.2,0-2.5,0.4-3.4,1.4c-0.8,0.8-2,0.8-2.8,0
			c-0.1-0.1-0.2-0.3-0.4-0.5c0-0.1,0-0.1,0-0.1c0-0.1,0-0.1-0.1-0.2c0-0.1,0-0.2,0-0.2c0,0,0,0,0-0.1c0-0.2,0-0.4,0-0.6l1-9.1
			c0.1-0.6,0.4-1.1,0.9-1.4c0.1,0,0.1,0,0.1-0.1c0,0,0.1,0,0.1-0.1c0.3-0.1,0.6-0.2,0.9-0.2h10.3c1.1,0,2,0.9,2,2c0,1.1-0.9,2-2,2
			h-8.6l-0.4,3.5c0.8-0.2,1.6-0.3,2.3-0.3C573.2,46.6,575.5,47.4,577.2,49.2z"/>
		<path class="st8" d="M581.6,45.6L581.6,45.6c0-3.5,2.3-6.3,5.8-6.3c3.5,0,5.7,2.8,5.7,6.2v0.1c0,3.4-2.3,6.3-5.8,6.3
			C583.9,51.7,581.6,48.9,581.6,45.6z M590,45.6L590,45.6c0-2-1.1-3.6-2.7-3.6c-1.6,0-2.6,1.6-2.6,3.5v0.1c0,2,1.1,3.6,2.7,3.6
			C589,49.1,590,47.4,590,45.6z M585.6,61.9L601.7,40c0.2-0.4,0.7-0.6,1.2-0.6c0.8,0,1.4,0.6,1.4,1.4c0,0.4-0.1,0.7-0.3,0.9
			l-16.1,21.9c-0.3,0.4-0.7,0.6-1.2,0.6c-0.8,0-1.4-0.6-1.4-1.4C585.3,62.5,585.4,62.1,585.6,61.9z M596.4,58.1L596.4,58.1
			c0-3.5,2.3-6.3,5.8-6.3c3.4,0,5.7,2.8,5.7,6.2V58c0,3.4-2.3,6.3-5.8,6.3C598.7,64.3,596.4,61.4,596.4,58.1z M604.8,58.1
			L604.8,58.1c0-2-1.1-3.6-2.7-3.6c-1.6,0-2.6,1.6-2.6,3.5V58c0,2,1.1,3.6,2.7,3.6C603.8,61.6,604.8,60,604.8,58.1z"/>
	</g>
	<g>
		<path class="st8" d="M134.1,41.1c0,1.1-0.8,1.9-1.9,1.9h-12.4c0,0,0,0,0,0h0c-0.5,0-1.1-0.2-1.4-0.6c-0.7-0.8-0.7-2,0.1-2.7
			l10.4-9.4c1-0.9,1.5-2.1,1.5-3.4c0-1.1-0.4-2.2-1.2-3c-0.9-1-2.1-1.5-3.4-1.5c-1.1,0-2.2,0.4-3,1.2l-1.1,1c-0.8,0.7-2,0.7-2.7-0.1
			c-0.7-0.8-0.7-2,0.1-2.7l1.1-1c1.6-1.5,3.6-2.2,5.6-2.2c2.3,0,4.6,0.9,6.2,2.8c1.5,1.6,2.2,3.6,2.2,5.6c0,2.3-0.9,4.6-2.8,6.2
			l-6.6,6h7.5C133.3,39.1,134.1,40,134.1,41.1z"/>
		<path class="st8" d="M148.3,28.2c1.7,1.7,2.6,3.9,2.6,6.2c0,2.2-0.9,4.4-2.6,6.1c-1.7,1.7-3.9,2.6-6.1,2.6c-0.1,0-0.1,0-0.1,0
			c-2.2,0-4.4-0.8-6.1-2.6c-0.8-0.7-0.8-2,0-2.8c0.7-0.8,2-0.8,2.8,0c0.9,0.9,2.1,1.4,3.4,1.4c1.2,0,2.4-0.5,3.3-1.4
			c0.9-0.9,1.4-2.1,1.4-3.3c0-1.3-0.5-2.5-1.4-3.4c-0.9-0.9-2.1-1.4-3.3-1.4c-1.2,0-2.5,0.4-3.4,1.4c-0.8,0.8-2,0.8-2.8,0
			c-0.1-0.1-0.2-0.3-0.4-0.5c0-0.1,0-0.1,0-0.1c0-0.1,0-0.1-0.1-0.2c0-0.1,0-0.2,0-0.2c0,0,0,0,0-0.1c0-0.2,0-0.4,0-0.6l1-9.1
			c0.1-0.6,0.4-1.1,0.9-1.4c0.1,0,0.1,0,0.1-0.1c0,0,0.1,0,0.1-0.1c0.3-0.1,0.6-0.2,0.9-0.2h10.3c1.1,0,2,0.9,2,2c0,1.1-0.9,2-2,2
			h-8.6l-0.4,3.5c0.8-0.2,1.6-0.3,2.3-0.3C144.4,25.6,146.7,26.4,148.3,28.2z"/>
		<path class="st8" d="M152.8,24.6L152.8,24.6c0-3.5,2.3-6.3,5.8-6.3c3.5,0,5.7,2.8,5.7,6.2v0.1c0,3.4-2.3,6.3-5.8,6.3
			C155.1,30.7,152.8,27.9,152.8,24.6z M161.2,24.6L161.2,24.6c0-2-1.1-3.6-2.7-3.6c-1.6,0-2.6,1.6-2.6,3.5v0.1c0,2,1.1,3.6,2.7,3.6
			C160.2,28.1,161.2,26.4,161.2,24.6z M156.8,40.9L172.8,19c0.2-0.4,0.7-0.6,1.2-0.6c0.8,0,1.4,0.6,1.4,1.4c0,0.4-0.1,0.7-0.3,0.9
			l-16.1,21.9c-0.3,0.4-0.7,0.6-1.2,0.6c-0.8,0-1.4-0.6-1.4-1.4C156.5,41.5,156.6,41.1,156.8,40.9z M167.6,37.1L167.6,37.1
			c0-3.5,2.3-6.3,5.8-6.3c3.4,0,5.7,2.8,5.7,6.2V37c0,3.4-2.3,6.3-5.8,6.3C169.9,43.3,167.6,40.4,167.6,37.1z M176,37.1L176,37.1
			c0-2-1.1-3.6-2.7-3.6c-1.6,0-2.6,1.6-2.6,3.5V37c0,2,1.1,3.6,2.7,3.6C175,40.6,176,39,176,37.1z"/>
	</g>
	<g>
		<path class="st8" d="M318.6,181.4v20.7c0,1.1-0.9,1.9-2,1.9c-1.1,0-1.9-0.8-1.9-1.9v-17.2l-1.4,0.8c-0.3,0.2-0.7,0.3-1,0.3
			c-0.7,0-1.3-0.4-1.6-1c-0.6-0.9-0.3-2.1,0.6-2.6l4.3-2.6c0,0,0.1,0,0.1-0.1c0.1,0,0.1-0.1,0.2-0.1c0.1,0,0.1,0,0.2,0
			c0,0,0.1,0,0.1,0c0.1,0,0.2,0,0.2,0c0,0,0.1,0,0.1,0h0c0.1,0,0.2,0,0.2,0c0,0,0.1,0,0.1,0c0.1,0,0.1,0,0.2,0.1c0,0,0.1,0,0.1,0
			c0.1,0.1,0.1,0.1,0.2,0.1c0,0,0.1,0.1,0.1,0.1c0,0,0.1,0.1,0.1,0.1c0.1,0,0.1,0.1,0.1,0.1c0,0,0.1,0.1,0.1,0.1
			c0,0,0.1,0.1,0.1,0.1l0,0.1c0,0,0,0.1,0,0.1c0,0.1,0.1,0.1,0.1,0.2c0,0.1,0,0.1,0.1,0.2c0,0.1,0,0.1,0,0.2c0,0.1,0,0.2,0.1,0.2
			C318.6,181.4,318.6,181.4,318.6,181.4z"/>
		<path class="st8" d="M319.5,191.7c0-3.2,0.8-6.1,2.4-8.4c1.5-2.2,3.7-3.9,6.5-3.9c2.7,0,5,1.6,6.5,3.9c1.5,2.2,2.3,5.1,2.3,8.4
			c0,3.2-0.8,6.1-2.3,8.4c-1.5,2.2-3.8,3.9-6.5,3.9c-2.8,0-5-1.7-6.5-3.9C320.3,197.9,319.5,194.9,319.5,191.7z M333.3,191.7
			c0-2.5-0.7-4.7-1.7-6.2c-1-1.5-2.2-2.2-3.3-2.1c-1.1,0-2.3,0.7-3.3,2.1c-1,1.5-1.7,3.7-1.7,6.2c0,2.5,0.7,4.7,1.7,6.2
			c1,1.5,2.2,2.2,3.3,2.2s2.2-0.7,3.3-2.2C332.6,196.5,333.3,194.2,333.3,191.7z"/>
		<path class="st8" d="M340.5,185.6L340.5,185.6c0-3.5,2.3-6.3,5.8-6.3c3.5,0,5.7,2.8,5.7,6.2v0.1c0,3.4-2.3,6.3-5.8,6.3
			C342.8,191.7,340.5,188.9,340.5,185.6z M348.9,185.6L348.9,185.6c0-2-1.1-3.6-2.7-3.6c-1.6,0-2.6,1.6-2.6,3.5v0.1
			c0,2,1.1,3.6,2.7,3.6C348,189.1,348.9,187.4,348.9,185.6z M344.5,201.9l16.1-21.9c0.2-0.4,0.7-0.6,1.2-0.6c0.8,0,1.4,0.6,1.4,1.4
			c0,0.4-0.1,0.7-0.3,0.9l-16.1,21.9c-0.3,0.4-0.7,0.6-1.2,0.6c-0.8,0-1.4-0.6-1.4-1.4C344.2,202.5,344.3,202.1,344.5,201.9z
			 M355.3,198.1L355.3,198.1c0-3.5,2.3-6.3,5.8-6.3c3.4,0,5.7,2.8,5.7,6.2v0.1c0,3.4-2.3,6.3-5.8,6.3
			C357.6,204.3,355.3,201.4,355.3,198.1z M363.7,198.1L363.7,198.1c0-2-1.1-3.6-2.7-3.6c-1.6,0-2.6,1.6-2.6,3.5v0.1
			c0,2,1.1,3.6,2.7,3.6C362.8,201.6,363.7,200,363.7,198.1z"/>
	</g>
</g>
</svg>
