<?xml version="1.0" encoding="utf-8"?>
<!-- Generator: Adobe Illustrator 21.0.2, SVG Export Plug-In . SVG Version: 6.00 Build 0)  -->
<svg version="1.1" xmlns="http://www.w3.org/2000/svg" xmlns:xlink="http://www.w3.org/1999/xlink" x="0px" y="0px"
	 viewBox="0 0 726 504.7" style="enable-background:new 0 0 726 504.7;" xml:space="preserve">
<style type="text/css">
	.st0{fill:#D8D8DA;}
	.st1{fill:#CDCDCF;}
	.st2{fill:#FFFFFF;}
	.st3{opacity:0.15;}
</style>
<g id="BACKGROUND">
</g>
<g id="OBJECTS">
	<g>
		<g>
			<g>
				<path class="st0" d="M455.5,374.9H333.4c-6.2,0-9.2-7.4-4.9-11.8l14.2-14.2c3.2-3.2,5.1-7.6,5.1-12.2l0.9-13.5l0.8-12.2
					l3.2-46.6L354,247l0.1-1.6l6.8-98.9l0.5-6.6h66.1l0.5,6.6l6.8,98.9l0.1,1.6l1.2,17.3l3.2,46.6l0.8,12.2l0.9,13.5
					c0,4.6,1.8,9,5.1,12.2l14.2,14.2C464.8,367.4,461.7,374.9,455.5,374.9z"/>
				<path class="st1" d="M455.5,374.9H333.4c-6.2,0-9.2-7.4-4.9-11.8l14.2-14.2c3.2-3.2,5.1-7.6,5.1-12.2l0.9-13.5l0.8-12.2
					l3.2-46.6L354,247l0.1-1.6l6.8-98.9l0.5-6.6h66.1l0.5,6.6l6.8,98.9l0.1,1.6l1.2,17.3l3.2,46.6l0.8,12.2l0.9,13.5
					c0,4.6,1.8,9,5.1,12.2l14.2,14.2C464.8,367.4,461.7,374.9,455.5,374.9z"/>
				<g>
					<path d="M627.7,15.6v279.8c0,0.7,0,1.4-0.1,2.1c-0.5,3.6-2.2,6.8-4.7,9.1c-2.8,2.7-6.6,4.3-10.7,4.3H176.8c-0.3,0-0.6,0-0.9,0
						h0c-0.3,0-0.6,0-0.9-0.1c-0.3,0-0.6-0.1-0.9-0.1c-0.3,0-0.5-0.1-0.8-0.2c-0.7-0.1-1.3-0.3-1.9-0.6c-0.3-0.1-0.5-0.2-0.8-0.3
						c-0.3-0.1-0.5-0.2-0.8-0.4c-0.3-0.1-0.5-0.3-0.8-0.4c-0.3-0.2-0.5-0.3-0.8-0.5c0,0,0,0-0.1,0c-0.7-0.5-1.4-1-2-1.6
						c-0.2-0.2-0.4-0.4-0.6-0.6c-0.4-0.4-0.8-0.9-1.1-1.4c-0.3-0.4-0.6-0.8-0.8-1.2c-0.2-0.3-0.3-0.5-0.5-0.8
						c-0.1-0.3-0.3-0.5-0.4-0.8c0,0,0-0.1,0-0.1c-0.1-0.3-0.2-0.5-0.3-0.8c-0.1-0.3-0.2-0.6-0.3-0.9c-0.1-0.3-0.2-0.6-0.3-0.9
						c-0.1-0.6-0.3-1.3-0.3-1.9c0-0.3-0.1-0.7-0.1-1c0-0.3,0-0.5,0-0.8V15.6c0-0.7,0-1.5,0.1-2.2c0.1-0.7,0.2-1.4,0.4-2
						c0,0,0-0.1,0-0.1c0.1-0.3,0.2-0.6,0.3-0.9c0,0,0-0.1,0-0.1c0.1-0.3,0.2-0.6,0.3-0.9c0,0,0-0.1,0.1-0.1c0.1-0.2,0.2-0.5,0.4-0.7
						c0,0,0-0.1,0.1-0.2c0.1-0.3,0.3-0.6,0.5-0.8c0.3-0.4,0.5-0.8,0.8-1.2c0.2-0.3,0.4-0.6,0.7-0.8c0.1-0.2,0.3-0.3,0.4-0.5
						c0,0,0-0.1,0.1-0.1c0.2-0.2,0.3-0.4,0.5-0.5c0,0,0,0,0-0.1c0.1-0.1,0.3-0.3,0.4-0.4c0.1-0.1,0.2-0.2,0.3-0.3
						c0.5-0.4,1-0.8,1.5-1.1c0.2-0.1,0.3-0.2,0.5-0.3c0.3-0.2,0.5-0.3,0.8-0.4c0.3-0.1,0.5-0.3,0.8-0.4c0.2-0.1,0.4-0.2,0.6-0.3
						c0.7-0.3,1.4-0.5,2.1-0.7c0.2-0.1,0.5-0.1,0.7-0.1c0.3-0.1,0.6-0.1,0.9-0.1c0.3,0,0.6-0.1,0.9-0.1c0,0,0.1,0,0.1,0
						c0.3,0,0.6,0,0.9,0h435.3C620.7,0,627.7,7,627.7,15.6z"/>
					<rect x="176.8" y="15.6" class="st0" width="435.3" height="231.5"/>
					<path d="M192.4,0l-31.1,31.1V15.6c0-8.6,7-15.5,15.5-15.5H192.4z"/>
					<path d="M192.4,310.9h-15.5c-8.6,0-15.5-7-15.5-15.5v-15.5L192.4,310.9z"/>
				</g>
				<path class="st0" d="M627.7,264.3v31.1c0,0.7,0,1.4-0.1,2.1c-0.5,3.6-2.2,6.8-4.7,9.1c-2.8,2.7-6.6,4.3-10.7,4.3H176.8
					c-0.3,0-0.6,0-0.9,0h0c-0.3,0-0.6,0-0.9-0.1c-0.3,0-0.6-0.1-0.9-0.1c-0.3,0-0.5-0.1-0.8-0.2c-0.7-0.1-1.3-0.3-1.9-0.6
					c-0.3-0.1-0.5-0.2-0.8-0.3c-0.3-0.1-0.5-0.2-0.8-0.4c-0.3-0.1-0.5-0.3-0.8-0.4c-0.3-0.2-0.5-0.3-0.8-0.5c0,0,0,0-0.1,0
					c-0.7-0.5-1.4-1-2-1.6c-0.2-0.2-0.4-0.4-0.6-0.6c-0.4-0.4-0.8-0.9-1.1-1.4c-0.3-0.4-0.6-0.8-0.8-1.2c-0.2-0.3-0.3-0.5-0.5-0.8
					c-0.1-0.3-0.3-0.5-0.4-0.8c0,0,0-0.1,0-0.1c-0.1-0.3-0.2-0.5-0.3-0.8c-0.1-0.3-0.2-0.6-0.3-0.9c-0.1-0.3-0.2-0.6-0.3-0.9
					c-0.1-0.6-0.3-1.3-0.3-1.9c0-0.3-0.1-0.7-0.1-1c0-0.3,0-0.5,0-0.8v-31.1H627.7z"/>
				<g>
					<rect x="176.8" y="15.6" class="st2" width="435.3" height="229.9"/>
				</g>
				<circle class="st1" cx="394.5" cy="287.6" r="7.8"/>
			</g>
		</g>
		<polygon class="st1" points="440.2,323.1 348.8,323.1 349.6,310.9 439.3,310.9 		"/>
	</g>
	<g>
		<g>
			<path d="M726,207.9v220.5c0,6.1-4.9,11-11,11H549.5c-6.1,0-11-4.9-11-11V207.9c0-6.1,4.9-11,11-11h165.4
				C721,196.9,726,201.8,726,207.9z"/>
			<rect x="549.5" y="207.9" class="st2" width="165.4" height="220.5"/>
		</g>
	</g>
	<g>
		<g>
			<path d="M569.3,336.9v133.8c0,3-2.4,5.4-5.4,5.4H505c-3,0-5.4-2.4-5.4-5.4V336.9c0-3,2.4-5.4,5.4-5.4h58.9
				C566.9,331.6,569.3,334,569.3,336.9z"/>
			<g class="st3">
				<circle class="st1" cx="534.5" cy="465.4" r="5.2"/>
				<path class="st1" d="M540.2,346.3h-11.5c-0.7,0-1.3-0.6-1.3-1.3l0,0c0-0.7,0.6-1.3,1.3-1.3h10.5h1c0.7,0,1.3,0.6,1.3,1.3l0,0
					C541.5,345.7,541,346.3,540.2,346.3z"/>
				<circle class="st1" cx="534.5" cy="339.6" r="1.6"/>
			</g>
			<rect x="505" y="353.5" class="st2" width="58.9" height="101.3"/>
		</g>
	</g>
	<g>
		<g>
			<g>
				<polygon points="334.9,300.1 334.9,486.1 37.2,486.1 37.2,300.1 55.8,281.5 316.3,281.5 				"/>
				<path d="M37.2,300.1c0-10.3,8.3-18.6,18.6-18.6h18.6l-37.2,37.2V300.1z"/>
				<path d="M334.9,300.1v18.6l-37.2-37.2h18.6C326.5,281.5,334.9,289.8,334.9,300.1z"/>
			</g>
			<rect x="55.8" y="300.1" class="st2" width="260.4" height="167.4"/>
			<g>
				<path class="st0" d="M372.1,486.1c0,0.5,0,1-0.1,1.4c-0.3,4.6-2.3,8.7-5.4,11.7c-0.3,0.3-0.7,0.7-1.1,1
					c-3.2,2.8-7.5,4.5-12.1,4.5H18.6C8.3,504.7,0,496.4,0,486.1H372.1z"/>
				<path class="st1" d="M217.8,486.1h-63.6c0,4.5,3.6,8.1,8.1,8.1h47.5c1.4,0,2.7-0.4,3.9-1C216.1,491.9,217.8,489.2,217.8,486.1z"
					/>
			</g>
		</g>
	</g>
</g>
</svg>
