<?xml version="1.0" encoding="utf-8"?>
<!-- Generator: Adobe Illustrator 21.0.2, SVG Export Plug-In . SVG Version: 6.00 Build 0)  -->
<svg fill="#fff" version="1.1" id="Camada_1" xmlns="http://www.w3.org/2000/svg" xmlns:xlink="http://www.w3.org/1999/xlink" x="0px" y="0px"
	 viewBox="0 0 24 7" style="enable-background:new 0 0 24 7;" xml:space="preserve">
<g>
	<path d="M0,0.5h1.7l1,4.6H3l1-4.6h1.6l-1.4,6H1.5L0,0.5z"/>
	<path d="M8.9,0.5h1.6v6H8.9V6.2C8.4,6.5,7.9,6.6,7.4,6.6C6.6,6.6,6,6.4,5.7,6C5.5,5.5,5.3,4.7,5.3,3.6V0.5h1.6v3.2
		c0,0.6,0,1,0.1,1.2c0.1,0.2,0.3,0.3,0.7,0.3c0.4,0,0.7-0.1,1-0.2l0.2,0V0.5z"/>
	<path d="M12.4,5c0.2,0.2,0.5,0.2,0.8,0.2c0.7,0,1.4,0,2-0.1l0.3,0l0,1.2c-0.9,0.2-1.8,0.3-2.5,0.3c-0.9,0-1.6-0.2-2-0.7
		c-0.4-0.5-0.6-1.3-0.6-2.3c0-2.2,0.9-3.2,2.7-3.2c1.7,0,2.6,0.9,2.6,2.7l-0.1,1.1h-3.5C12.1,4.6,12.2,4.8,12.4,5z M14.2,3
		c0-0.5-0.1-0.8-0.2-1c-0.2-0.2-0.4-0.3-0.8-0.3c-0.4,0-0.6,0.1-0.8,0.3c-0.2,0.2-0.2,0.5-0.2,1H14.2z"/>
	<path d="M15.3,0.5h1.6l0.7,4.6h0.3l0.9-4.5h1.7l0.9,4.5h0.3l0.7-4.6H24l-1.1,6h-2.5l-0.7-3.7l-0.7,3.7h-2.5L15.3,0.5z"/>
</g>
</svg>
