<?xml version="1.0" encoding="utf-8"?>
<!-- Generator: Adobe Illustrator 21.0.2, SVG Export Plug-In . SVG Version: 6.00 Build 0)  -->
<svg version="1.1" id="Camada_1" xmlns="http://www.w3.org/2000/svg" xmlns:xlink="http://www.w3.org/1999/xlink" x="0px" y="0px"
	 viewBox="0 0 24 5.9" style="enable-background:new 0 0 24 5.9;" xml:space="preserve">
<style type="text/css">
	.st0{fill:#FFFFFF;}
</style>
<g>
	<path class="st0" d="M1.8,3.5C1.6,3.5,1.3,3.4,1.1,3.3C0.9,3.2,0.7,3,0.5,2.9C0.3,2.8,0.2,2.6,0.1,2.4C0,2.2,0,2,0,1.7
		c0-0.5,0.2-0.9,0.6-1.3C1,0.2,1.6,0,2.3,0c0.3,0,0.5,0,0.7,0.1c0.2,0,0.4,0.1,0.6,0.2C3.8,0.3,3.9,0.4,4,0.5
		c0.1,0.1,0.1,0.3,0.1,0.4s0,0.3-0.1,0.4C4,1.5,3.9,1.6,3.8,1.7C3.6,1.6,3.5,1.5,3.2,1.4C3,1.4,2.8,1.3,2.5,1.3
		c-0.3,0-0.5,0-0.6,0.1C1.7,1.5,1.7,1.6,1.7,1.7c0,0.1,0,0.2,0.1,0.2C1.9,2,2,2.1,2.2,2.1l0.5,0.2C3.2,2.5,3.7,2.7,4,3
		c0.3,0.3,0.5,0.7,0.5,1.2c0,0.5-0.2,1-0.6,1.3C3.4,5.8,2.8,5.9,2,5.9c-0.3,0-0.5,0-0.8-0.1C1,5.8,0.8,5.7,0.6,5.7
		C0.4,5.6,0.3,5.5,0.2,5.3C0.1,5.2,0,5,0,4.9c0-0.2,0.1-0.3,0.2-0.5c0.1-0.1,0.2-0.2,0.3-0.3c0.2,0.1,0.4,0.3,0.6,0.4
		C1.4,4.6,1.7,4.6,2,4.6c0.3,0,0.5,0,0.6-0.1s0.2-0.2,0.2-0.3s0-0.2-0.1-0.3S2.4,3.7,2.2,3.7L1.8,3.5z"/>
	<path class="st0" d="M6.5,5.7c-0.1,0-0.2,0-0.3,0.1c-0.1,0-0.3,0-0.4,0c-0.1,0-0.3,0-0.4,0c-0.1,0-0.2-0.1-0.3-0.1S5,5.5,4.9,5.4
		c0-0.1-0.1-0.2-0.1-0.4V0.2c0.1,0,0.2,0,0.3-0.1s0.3,0,0.4,0c0.1,0,0.3,0,0.4,0s0.2,0.1,0.3,0.1c0.1,0.1,0.1,0.1,0.2,0.2
		c0,0.1,0.1,0.2,0.1,0.4V5.7z"/>
	<path class="st0" d="M9.5,1.5H7.2c0-0.1-0.1-0.2-0.1-0.3c0-0.1-0.1-0.2-0.1-0.4c0-0.2,0.1-0.4,0.2-0.5s0.2-0.2,0.4-0.2h3.5
		c0.3,0.2,0.4,0.5,0.4,0.9c0,0.2,0,0.3-0.1,0.5c-0.1,0.2-0.2,0.3-0.3,0.4L9,4.5h2.4c0,0.1,0.1,0.2,0.1,0.3c0,0.1,0.1,0.2,0.1,0.4
		c0,0.2-0.1,0.4-0.2,0.5c-0.1,0.1-0.2,0.2-0.4,0.2H7.3C7.2,5.7,7.1,5.6,7.1,5.4C7,5.3,7,5.1,7,4.9c0-0.2,0-0.3,0.1-0.5
		C7.2,4.3,7.3,4.1,7.4,4L9.5,1.5z"/>
	<path class="st0" d="M13.6,5.7c-0.1,0-0.2,0-0.3,0.1c-0.1,0-0.3,0-0.4,0c-0.1,0-0.3,0-0.4,0s-0.2-0.1-0.3-0.1
		c-0.1-0.1-0.1-0.1-0.2-0.2C12,5.3,12,5.2,12,5.1V0.2c0.1,0,0.2,0,0.3-0.1s0.3,0,0.4,0c0.1,0,0.3,0,0.4,0c0.1,0,0.2,0.1,0.3,0.1
		c0.1,0.1,0.1,0.1,0.2,0.2c0,0.1,0.1,0.2,0.1,0.4V5.7z"/>
	<path class="st0" d="M18.3,0.2c0,0.1,0.1,0.2,0.1,0.3c0,0.1,0.1,0.2,0.1,0.4c0,0.2-0.1,0.4-0.2,0.5c-0.1,0.1-0.2,0.2-0.4,0.2H16v1
		h2c0.1,0.1,0.1,0.2,0.1,0.3c0,0.1,0.1,0.2,0.1,0.4c0,0.2-0.1,0.4-0.2,0.5c-0.1,0.1-0.2,0.2-0.4,0.2H16v2c-0.1,0-0.2,0-0.3,0.1
		c-0.1,0-0.3,0-0.4,0c-0.1,0-0.3,0-0.4,0s-0.2-0.1-0.3-0.1c-0.1-0.1-0.1-0.1-0.2-0.2c0-0.1-0.1-0.2-0.1-0.4V1c0-0.3,0.1-0.5,0.2-0.6
		c0.2-0.2,0.4-0.2,0.6-0.2H18.3z"/>
	<path class="st0" d="M22.4,5.7c-0.1,0-0.2,0-0.3,0.1c-0.1,0-0.3,0-0.4,0c-0.3,0-0.5,0-0.6-0.1c-0.1-0.1-0.2-0.3-0.2-0.6V3.8
		c-0.2-0.2-0.3-0.5-0.5-0.8c-0.2-0.3-0.4-0.6-0.5-0.9c-0.2-0.3-0.3-0.6-0.5-0.9c-0.1-0.3-0.3-0.5-0.4-0.8c0.1-0.1,0.2-0.2,0.3-0.3
		c0.1-0.1,0.3-0.1,0.5-0.1c0.2,0,0.4,0,0.6,0.1c0.2,0.1,0.3,0.3,0.4,0.6l0.8,1.5h0.1c0.1-0.2,0.2-0.4,0.2-0.5
		C21.9,1.7,22,1.5,22,1.4c0.1-0.2,0.1-0.3,0.2-0.5c0.1-0.2,0.1-0.4,0.2-0.6c0.1-0.1,0.2-0.1,0.4-0.1c0.1,0,0.3,0,0.4,0
		c0.2,0,0.4,0.1,0.6,0.2C23.9,0.4,24,0.6,24,0.8c0,0.1,0,0.2,0,0.3c0,0.1-0.1,0.3-0.2,0.5c-0.1,0.2-0.3,0.5-0.5,0.9
		c-0.2,0.4-0.5,0.8-0.9,1.4V5.7z"/>
</g>
</svg>
