<?xml version="1.0" encoding="utf-8"?>
<!-- Generator: Adobe Illustrator 21.0.2, SVG Export Plug-In . SVG Version: 6.00 Build 0)  -->
<svg version="1.1" id="Camada_1" xmlns="http://www.w3.org/2000/svg" xmlns:xlink="http://www.w3.org/1999/xlink" x="0px" y="0px"
	 viewBox="0 0 269.9 104.1" style="enable-background:new 0 0 269.9 104.1;" xml:space="preserve">
<style type="text/css">
	.st0{fill:#FFFFFF;}
</style>
<g>
	<path class="st0" d="M28.1,48.7c-3.4-1.2-6.5-2.3-9.3-3.5c-2.8-1.2-5.2-2.7-7.2-4.4c-2-1.7-3.6-3.7-4.7-6.1
		c-1.1-2.4-1.7-5.2-1.7-8.7c0-6.6,2.5-11.8,7.6-15.8C17.9,6.4,25,4.4,34.2,4.4c3.3,0,6.4,0.2,9.3,0.7c2.9,0.5,5.3,1.2,7.4,2.1
		c2.1,1,3.7,2.2,4.8,3.7c1.2,1.5,1.7,3.3,1.7,5.3c0,2-0.5,3.7-1.4,5.2c-0.9,1.4-2.1,2.7-3.4,3.7c-1.7-1.1-4-2-6.9-2.8
		c-2.9-0.8-6-1.2-9.4-1.2c-3.5,0-6,0.5-7.7,1.5c-1.6,1-2.4,2.2-2.4,3.7c0,1.2,0.5,2.1,1.5,2.8c1,0.7,2.5,1.4,4.5,2l6.2,2
		c7.3,2.3,12.9,5.3,16.8,8.9c3.9,3.6,5.9,8.5,5.9,14.7c0,6.6-2.6,11.9-7.8,16c-5.2,4.1-12.8,6.1-22.9,6.1c-3.6,0-6.9-0.3-9.9-0.9
		c-3.1-0.6-5.7-1.4-8-2.6C10.2,74,8.4,72.7,7.2,71c-1.3-1.7-1.9-3.6-1.9-5.7c0-2.2,0.7-4.2,2-5.7c1.3-1.6,2.7-2.8,4.3-3.7
		c2.2,1.7,4.8,3.2,8,4.4c3.1,1.2,6.6,1.9,10.3,1.9c3.8,0,6.5-0.6,8-1.7c1.5-1.2,2.3-2.5,2.3-4.1c0-1.5-0.6-2.7-1.9-3.5
		c-1.2-0.8-3-1.6-5.2-2.4L28.1,48.7z"/>
	<path class="st0" d="M66.4,10.9c0-2,0.7-3.8,2.1-5.1c1.4-1.4,3.2-2.1,5.4-2.1c2.3,0,4.1,0.7,5.4,2.1c1.4,1.4,2.1,3.1,2.1,5.1
		c0,2-0.7,3.8-2.1,5.2c-1.4,1.4-3.2,2.1-5.4,2.1c-2.3,0-4.1-0.7-5.4-2.1C67.1,14.7,66.4,13,66.4,10.9z M84.6,77.5
		c-0.9,0.2-2.1,0.4-3.8,0.6c-1.7,0.3-3.3,0.4-5.1,0.4c-1.7,0-3.2-0.1-4.6-0.3c-1.4-0.2-2.5-0.7-3.4-1.4c-0.9-0.7-1.6-1.6-2.1-2.8
		c-0.5-1.2-0.8-2.8-0.8-4.7V22c0.9-0.2,2.1-0.4,3.8-0.6c1.7-0.3,3.3-0.4,5.1-0.4c1.7,0,3.2,0.1,4.6,0.3c1.4,0.2,2.5,0.7,3.4,1.4
		c0.9,0.7,1.6,1.6,2.1,2.8c0.5,1.2,0.8,2.8,0.8,4.7V77.5z"/>
	<path class="st0" d="M92.4,78.6c-1.2-1.1-2.2-2.4-3-3.8c-0.7-1.5-1.1-3.1-1.1-5c0-1.5,0.4-3.1,1.1-4.6c0.7-1.5,1.6-2.9,2.7-4.2
		l20-23.5H90.7c-0.5-0.8-0.9-1.9-1.3-3.3c-0.4-1.3-0.6-2.7-0.6-4.3c0-2.7,0.6-4.7,1.8-5.9c1.2-1.2,2.8-1.8,4.8-1.8H132
		c1.2,1.1,2.2,2.4,3,3.8c0.7,1.5,1.1,3.1,1.1,5c0,1.5-0.4,3.1-1.1,4.6c-0.7,1.5-1.6,2.9-2.7,4.2l-19.5,23.5h22.8
		c0.5,0.9,0.9,1.9,1.3,3.3c0.4,1.3,0.6,2.7,0.6,4.3c0,2.7-0.6,4.7-1.8,5.9c-1.2,1.2-2.8,1.8-4.8,1.8H92.4z"/>
	<path class="st0" d="M143.6,10.9c0-2,0.7-3.8,2.1-5.1c1.4-1.4,3.2-2.1,5.4-2.1c2.3,0,4.1,0.7,5.4,2.1c1.4,1.4,2.1,3.1,2.1,5.1
		c0,2-0.7,3.8-2.1,5.2c-1.4,1.4-3.2,2.1-5.4,2.1c-2.3,0-4.1-0.7-5.4-2.1C144.3,14.7,143.6,13,143.6,10.9z M160.8,77.5
		c-0.9,0.2-2.1,0.4-3.8,0.6c-1.7,0.3-3.3,0.4-5.1,0.4c-1.7,0-3.2-0.1-4.6-0.3c-1.4-0.2-2.5-0.7-3.4-1.4c-0.9-0.7-1.6-1.6-2.1-2.8
		c-0.5-1.2-0.8-2.8-0.8-4.7V22c0.9-0.2,2.1-0.4,3.8-0.6c1.7-0.3,3.3-0.4,5.1-0.4c1.7,0,3.2,0.1,4.6,0.3c1.4,0.2,2.5,0.7,3.4,1.4
		c0.9,0.7,1.6,1.6,2.1,2.8c0.5,1.2,0.8,2.8,0.8,4.7V77.5z"/>
	<path class="st0" d="M164.5,26.8c0-3.9,0.7-7.3,2-10.2c1.4-2.8,3.2-5.1,5.5-7c2.3-1.8,5.1-3.2,8.2-4c3.1-0.9,6.5-1.3,10-1.3
		c5.7,0,9.9,0.8,12.7,2.3c2.7,1.5,4.1,4.1,4.1,7.7c0,1.6-0.3,2.9-1,4.2c-0.7,1.2-1.4,2.2-2.1,2.8c-1.5-0.4-3-0.7-4.6-1
		c-1.6-0.3-3.4-0.4-5.5-0.4c-3.3,0-5.9,0.6-7.8,1.7c-1.9,1.1-2.8,3.1-2.8,5.9v3.7h19c0.5,0.9,0.9,1.9,1.3,3.2
		c0.4,1.3,0.6,2.7,0.6,4.2c0,2.7-0.6,4.7-1.8,5.9c-1.2,1.2-2.8,1.8-4.8,1.8h-13.4V77c-0.8,0.2-2,0.5-3.7,0.7
		c-1.7,0.2-3.4,0.3-5.2,0.3c-1.7,0-3.2-0.1-4.6-0.3c-1.4-0.2-2.5-0.7-3.4-1.4c-0.9-0.7-1.6-1.6-2.1-2.8c-0.5-1.2-0.8-2.8-0.8-4.7
		V26.8z"/>
	<path class="st0" d="M218.3,65.5c-0.9-1.9-1.8-4.1-2.7-6.5c-1-2.4-2-5.1-3-8.2c-1-3.1-2.1-6.6-3.3-10.6c-1.1-4-2.3-8.6-3.5-13.8
		c1.1-1.1,2.5-2,4.4-2.8c1.8-0.8,3.8-1.2,6-1.2c2.7,0,5,0.6,6.7,1.7c1.8,1.1,3.1,3.2,3.9,6.3l9.2,31.9h0.5c0.9-2.6,1.8-5.5,2.7-8.6
		c0.9-3.1,1.8-6.3,2.6-9.6c0.9-3.3,1.6-6.6,2.4-9.9c0.7-3.3,1.4-6.5,1.9-9.7c2.8-1.5,5.8-2.2,9.2-2.2c2.7,0,5,0.6,6.7,1.7
		c1.8,1.2,2.7,3.2,2.7,6c0,2.1-0.3,4.5-0.8,7.3c-0.5,2.7-1.3,5.7-2.1,8.8c-0.9,3.1-1.9,6.3-3.1,9.6c-1.2,3.3-2.5,6.5-3.8,9.7
		c-1.3,3.2-2.7,6.2-4.1,9c-1.4,2.8-2.7,5.4-4.1,7.6c-2.2,3.8-4.2,6.9-6,9.3c-1.9,2.4-3.6,4.3-5.3,5.6c-1.7,1.4-3.4,2.3-5.1,2.8
		c-1.7,0.5-3.5,0.8-5.3,0.8c-3.3,0-5.9-1-7.9-2.9c-2-1.9-3.2-4.5-3.6-7.5c2.5-1.9,5-4.1,7.4-6.4c2.5-2.4,4.7-4.8,6.7-7.3
		c-1.3-0.4-2.7-1.3-4.2-2.7C221.8,72.1,220.1,69.4,218.3,65.5z"/>
</g>
</svg>
