<?xml version="1.0" encoding="iso-8859-1"?>
<!-- Generator: Adobe Illustrator 19.1.0, SVG Export Plug-In . SVG Version: 6.00 Build 0)  -->
<svg version="1.1" id="Capa_1" xmlns="http://www.w3.org/2000/svg" xmlns:xlink="http://www.w3.org/1999/xlink" x="0px" y="0px"
	 viewBox="0 0 490.094 490.094" style="enable-background:new 0 0 490.094 490.094;" xml:space="preserve">
<g>
	<g>
		<path d="M260.148,15.1c-68.436,0-129.865,29.913-171.981,77.364c-3.254,2.074-27.849,40.455-18.931,49.37
			c8.919,8.92,55.231-28.185,55.231-28.185c34.334-35.449,82.432-57.487,135.681-57.487c104.319,0,188.885,84.565,188.885,188.884
			c0,104.318-84.567,188.885-188.885,188.885c-98.783,0-179.841-75.836-188.165-172.46h34.582c3.183,0,5.761-2.58,5.761-5.761
			c0,0-47.522-89.284-51.842-93.606c-4.321-4.321-8.64,0-8.64,0L0,255.711c0,3.182,2.578,5.761,5.759,5.761H30.79
			C39.214,380.8,138.675,474.994,260.148,474.994c126.996,0,229.946-102.951,229.946-229.948S387.144,15.1,260.148,15.1z"/>
	</g>
	<g>
	</g>
	<g>
	</g>
	<g>
	</g>
	<g>
	</g>
	<g>
	</g>
	<g>
	</g>
	<g>
	</g>
	<g>
	</g>
	<g>
	</g>
	<g>
	</g>
	<g>
	</g>
	<g>
	</g>
	<g>
	</g>
	<g>
	</g>
	<g>
	</g>
</g>
<g>
</g>
<g>
</g>
<g>
</g>
<g>
</g>
<g>
</g>
<g>
</g>
<g>
</g>
<g>
</g>
<g>
</g>
<g>
</g>
<g>
</g>
<g>
</g>
<g>
</g>
<g>
</g>
<g>
</g>
</svg>
